<mxfile host="app.diagrams.net" modified="2023-10-17T08:15:55.901Z" agent="Mozilla/5.0 (Windows NT 10.0; Win64; x64) AppleWebKit/537.36 (KHTML, like Gecko) Chrome/117.0.0.0 Safari/537.36 Edg/117.0.2045.60" etag="EwAq03kAzkfJsUiQF8Hn" version="22.0.4" type="github">
  <diagram name="第 1 页" id="NaiW-HmVME8lXxUA8e3_">
    <mxGraphModel dx="1426" dy="803" grid="1" gridSize="10" guides="1" tooltips="1" connect="1" arrows="1" fold="1" page="1" pageScale="1" pageWidth="827" pageHeight="1169" math="0" shadow="0">
      <root>
        <mxCell id="0" />
        <mxCell id="1" parent="0" />
        <mxCell id="3V4c2zfvgddw5qwIzAxt-13" value="" style="rounded=0;whiteSpace=wrap;html=1;" parent="1" vertex="1">
          <mxGeometry x="210" y="140" width="400" height="300" as="geometry" />
        </mxCell>
        <mxCell id="3V4c2zfvgddw5qwIzAxt-3" value="高配服务器" style="text;html=1;align=center;verticalAlign=middle;resizable=0;points=[];autosize=1;strokeColor=none;fillColor=none;" parent="1" vertex="1">
          <mxGeometry x="230" y="150" width="80" height="30" as="geometry" />
        </mxCell>
        <mxCell id="3V4c2zfvgddw5qwIzAxt-4" value="" style="rounded=0;whiteSpace=wrap;html=1;" parent="1" vertex="1">
          <mxGeometry x="240" y="190" width="306" height="220" as="geometry" />
        </mxCell>
        <mxCell id="3V4c2zfvgddw5qwIzAxt-5" value="docker" style="text;html=1;align=center;verticalAlign=middle;resizable=0;points=[];autosize=1;strokeColor=none;fillColor=none;" parent="1" vertex="1">
          <mxGeometry x="260" y="200" width="60" height="30" as="geometry" />
        </mxCell>
        <mxCell id="3V4c2zfvgddw5qwIzAxt-6" value="" style="rounded=1;whiteSpace=wrap;html=1;" parent="1" vertex="1">
          <mxGeometry x="210" y="610" width="400" height="310" as="geometry" />
        </mxCell>
        <mxCell id="3V4c2zfvgddw5qwIzAxt-7" value="备份策略" style="text;html=1;align=center;verticalAlign=middle;resizable=0;points=[];autosize=1;strokeColor=none;fillColor=none;" parent="1" vertex="1">
          <mxGeometry x="235" y="620" width="70" height="30" as="geometry" />
        </mxCell>
        <mxCell id="3V4c2zfvgddw5qwIzAxt-9" value="本机" style="text;html=1;align=center;verticalAlign=middle;resizable=0;points=[];autosize=1;strokeColor=none;fillColor=none;" parent="1" vertex="1">
          <mxGeometry x="280" y="675" width="50" height="30" as="geometry" />
        </mxCell>
        <mxCell id="3V4c2zfvgddw5qwIzAxt-11" value="" style="rounded=0;whiteSpace=wrap;html=1;" parent="1" vertex="1">
          <mxGeometry x="270" y="230" width="260" height="160" as="geometry" />
        </mxCell>
        <mxCell id="3V4c2zfvgddw5qwIzAxt-22" style="edgeStyle=orthogonalEdgeStyle;rounded=0;orthogonalLoop=1;jettySize=auto;html=1;entryX=0.112;entryY=0;entryDx=0;entryDy=0;entryPerimeter=0;" parent="1" target="3V4c2zfvgddw5qwIzAxt-6" edge="1">
          <mxGeometry relative="1" as="geometry">
            <mxPoint x="255" y="480" as="sourcePoint" />
          </mxGeometry>
        </mxCell>
        <mxCell id="3V4c2zfvgddw5qwIzAxt-23" value="vscode" style="rounded=0;whiteSpace=wrap;html=1;" parent="1" vertex="1">
          <mxGeometry x="285" y="250" width="65" height="20" as="geometry" />
        </mxCell>
        <mxCell id="3V4c2zfvgddw5qwIzAxt-24" value="typora" style="rounded=0;whiteSpace=wrap;html=1;" parent="1" vertex="1">
          <mxGeometry x="300" y="270" width="65" height="20" as="geometry" />
        </mxCell>
        <mxCell id="3V4c2zfvgddw5qwIzAxt-25" value="nvm" style="rounded=0;whiteSpace=wrap;html=1;" parent="1" vertex="1">
          <mxGeometry x="381" y="250" width="65" height="20" as="geometry" />
        </mxCell>
        <mxCell id="3V4c2zfvgddw5qwIzAxt-26" value="python" style="rounded=0;whiteSpace=wrap;html=1;" parent="1" vertex="1">
          <mxGeometry x="402.5" y="270" width="65" height="20" as="geometry" />
        </mxCell>
        <mxCell id="3V4c2zfvgddw5qwIzAxt-27" value="" style="rounded=0;whiteSpace=wrap;html=1;" parent="1" vertex="1">
          <mxGeometry x="570" y="500" width="120" height="60" as="geometry" />
        </mxCell>
        <mxCell id="3V4c2zfvgddw5qwIzAxt-28" value="挂载磁盘" style="rounded=0;whiteSpace=wrap;html=1;" parent="1" vertex="1">
          <mxGeometry x="285" y="320" width="65" height="20" as="geometry" />
        </mxCell>
        <mxCell id="3V4c2zfvgddw5qwIzAxt-30" value="docker安装包" style="rounded=0;whiteSpace=wrap;html=1;" parent="1" vertex="1">
          <mxGeometry x="210" y="440" width="90" height="40" as="geometry" />
        </mxCell>
        <mxCell id="3V4c2zfvgddw5qwIzAxt-31" value="镜像、容器安装包" style="rounded=0;whiteSpace=wrap;html=1;" parent="1" vertex="1">
          <mxGeometry x="300" y="440" width="90" height="40" as="geometry" />
        </mxCell>
      </root>
    </mxGraphModel>
  </diagram>
</mxfile>
